<?xml version="1.0" encoding="UTF-8" standalone="no"?>
<svg
   xmlns:dc="http://purl.org/dc/elements/1.1/"
   xmlns:cc="http://creativecommons.org/ns#"
   xmlns:rdf="http://www.w3.org/1999/02/22-rdf-syntax-ns#"
   xmlns:svg="http://www.w3.org/2000/svg"
   xmlns="http://www.w3.org/2000/svg"
   xmlns:sodipodi="http://sodipodi.sourceforge.net/DTD/sodipodi-0.dtd"
   xmlns:inkscape="http://www.inkscape.org/namespaces/inkscape"
   version="1.1"
   id="svg2"
   xml:space="preserve"
   width="800.09998"
   height="251.37334"
   viewBox="0 0 800.09998 251.37334"
   sodipodi:docname="UST4C_L4.ai"><metadata
     id="metadata8"><rdf:RDF><cc:Work
         rdf:about=""><dc:format>image/svg+xml</dc:format><dc:type
           rdf:resource="http://purl.org/dc/dcmitype/StillImage" /></cc:Work></rdf:RDF></metadata><defs
     id="defs6"><clipPath
       clipPathUnits="userSpaceOnUse"
       id="clipPath18"><path
         d="M 0,188.53 H 600.075 V 0 H 0 Z"
         id="path16" /></clipPath></defs><sodipodi:namedview
     pagecolor="#ffffff"
     bordercolor="#666666"
     borderopacity="1"
     objecttolerance="10"
     gridtolerance="10"
     guidetolerance="10"
     inkscape:pageopacity="0"
     inkscape:pageshadow="2"
     inkscape:window-width="640"
     inkscape:window-height="480"
     id="namedview4" /><g
     id="g10"
     inkscape:groupmode="layer"
     inkscape:label="UST4C_L4"
     transform="matrix(1.3333333,0,0,-1.3333333,0,251.37333)"><g
       id="g12"><g
         id="g14"
         clip-path="url(#clipPath18)"><g
           id="g20"
           transform="translate(166.8263,172.6643)"><path
             d="M 0,0 V -7.726 H 10.313 C 6.052,-6.052 2.615,-3.477 0,0 M -11.986,-21.42 H 8.56 v 3.676 H -11.986 Z M 8.56,-11.23 h -20.546 v -3.176 H 8.56 Z m -22.009,3.504 h 9.523 v 7.687 c -2.425,-3.454 -5.596,-6.013 -9.523,-7.687 M 12.447,-8.683 V -26.809 H 8.568 v 1.919 h -20.534 v -1.919 h -3.883 v 17.915 c -0.691,-0.306 -1.876,-0.739 -3.545,-1.295 l -2.007,3.715 c 5.068,1.228 9.478,3.414 13.234,6.558 h -12.9 V 3.549 H -3.911 V 6.935 C -10.174,6.769 -14.665,6.681 -17.391,6.681 l -1.38,3.843 c 1.587,-0.056 3.55,-0.083 5.887,-0.083 11.103,0 19.505,0.64 25.207,1.923 L 14.121,8.938 C 10.333,8.159 5.631,7.531 0.012,7.058 V 3.549 H 17.629 V 0.084 H 4.184 c 3.172,-3.061 7.767,-5.19 13.779,-6.391 l -1.84,-3.799 c -0.556,0.254 -1.168,0.477 -1.836,0.668 -0.668,0.199 -1.284,0.445 -1.84,0.755"
             style="fill:#13366d;fill-opacity:1;fill-rule:nonzero;stroke:none"
             id="path22" /></g><path
           d="m 218.569,172.891 h 7.603 v 4.093 h -7.603 z m 0.923,-3.505 c -0.616,-1.423 -1.435,-2.675 -2.464,-3.76 h 10.646 c -0.918,1.03 -1.768,2.282 -2.547,3.76 z m -3.175,-11.151 h 9.605 v 4.093 h -9.605 z m -7.111,22.259 h 5.556 v 4.344 h 3.816 v -4.344 h 7.614 v 4.344 h 3.767 v -4.344 h 6.892 v -3.299 h -6.892 v -4.304 h 7.516 v -3.505 h -7.976 c 1.112,-2.257 3.926,-4.499 8.437,-6.725 l -1.797,-3.715 c -2.559,1.53 -4.677,3.048 -6.346,4.55 v -8.56 h -13.445 v -2.671 c 0,-0.973 0.489,-1.462 1.462,-1.462 h 12.4 c 1.168,0 1.864,0.433 2.086,1.295 0.223,0.891 0.434,2.433 0.628,4.634 l 4.011,-1.463 c -0.446,-3.866 -1.046,-6.191 -1.797,-6.97 -0.723,-0.755 -2.158,-1.129 -4.3,-1.129 H 217.31 c -1.784,0 -3.036,0.334 -3.76,1.002 -0.695,0.695 -1.041,1.991 -1.041,3.882 v 9.355 c -0.7,-0.583 -1.979,-1.462 -3.843,-2.63 l -2.381,3.509 c 4.622,2.087 7.544,4.44 8.767,7.058 h -6.68 v 3.505 h 6.39 v 4.178 h -5.556 v 2.253 l -2.547,-3.172 c -2.281,2.087 -4.355,3.716 -6.219,4.884 l 2.754,3.093 c 2.369,-1.507 4.372,-2.882 6.012,-4.138 z m -4.08,-14.907 c -2.258,1.92 -4.205,3.421 -5.847,4.506 l 2.504,3.136 c 1.979,-1.061 4.037,-2.412 6.18,-4.05 z m 2.586,-6.764 c -1.14,-4.515 -2.909,-8.66 -5.301,-12.447 l -3.343,3.426 c 2.453,3.477 4.122,7.193 5.012,11.147 z"
           style="fill:#13366d;fill-opacity:1;fill-rule:nonzero;stroke:none"
           id="path24" /><g
           id="g26"
           transform="translate(279.8507,173.8606)"><path
             d="m 0,0 c -3.088,2.476 -5.595,4.3 -7.515,5.469 l 2.504,2.758 C -3.199,7.221 -0.652,5.524 2.631,3.132 Z m -0.751,-10.15 c -2.865,2.393 -5.401,4.244 -7.599,5.556 l 2.465,2.798 c 2.086,-1.089 4.661,-2.798 7.725,-5.139 z m -9.089,-8.477 v 3.883 l 13.989,2.09 v 24.012 h 3.883 v -23.554 l 3.759,0.627 v -3.803 L 8.032,-15.996 V -27.982 H 4.149 v 11.486 z m -9.661,23.929 c -1.474,-0.279 -3.632,-0.517 -6.474,-0.707 l -0.874,3.504 c 6.235,0.306 11.593,1.308 16.076,3.009 L -9.355,7.683 C -11.358,6.987 -13.46,6.415 -15.658,5.969 V 0.08 h 6.347 v -3.589 h -6.347 v -0.377 c 3.116,-2.894 5.469,-5.207 7.058,-6.931 l -2.34,-3.593 c -0.835,1.169 -1.67,2.225 -2.504,3.175 -0.727,0.863 -1.463,1.797 -2.214,2.798 v -19.378 l -3.843,-0.167 v 17.165 c -1.057,-2.671 -2.953,-5.79 -5.679,-9.355 l -2.341,3.759 c 3.509,3.982 6.141,8.282 7.893,12.904 h -7.643 V 0.08 h 7.77 z"
             style="fill:#13366d;fill-opacity:1;fill-rule:nonzero;stroke:none"
             id="path28" /></g><g
           id="g30"
           transform="translate(321.4445,172.8557)"><path
             d="m 0,0 h -4.928 v -7.388 c 2.225,0.723 3.855,1.335 4.884,1.836 v -4.094 c -0.862,-0.473 -2.492,-1.112 -4.884,-1.919 v -10.233 c 0,-1.975 -0.282,-3.284 -0.843,-3.927 -0.583,-0.668 -1.912,-1.002 -3.978,-1.002 h -3.303 l -0.957,4.221 3.633,-0.127 c 0.918,0 1.379,0.461 1.379,1.379 v 8.516 c -2.369,-0.612 -4.232,-1.085 -5.596,-1.418 l -1.006,4.51 c 2.424,0.306 4.622,0.724 6.602,1.252 V 0 h -6.181 v 3.803 h 6.181 v 8.56 h 4.109 v -8.56 h 4.927 v 2.671 h 8.979 v 5.889 h 4.136 V 6.474 h 9.856 v -3.8 h -9.856 v -5.595 h 8.433 v -3.466 c -0.361,-1.506 -1.279,-3.466 -2.754,-5.889 -1.45,-2.425 -2.964,-4.332 -4.554,-5.723 2.785,-2.281 5.93,-3.911 9.439,-4.884 l -2.131,-3.927 c -3.676,1.196 -7.125,3.271 -10.357,6.224 -4.399,-3.367 -8.599,-5.473 -12.609,-6.307 l -2.297,3.799 c 4.01,0.894 8.016,2.687 12.026,5.389 -2.142,2.17 -4.245,5.135 -6.304,8.894 l 3.466,1.379 c 1.92,-3.398 3.84,-6.056 5.762,-7.976 2.837,2.254 4.857,5.135 6.053,8.643 H 0.751 v 3.844 H 9.018 V 2.674 H 0.039 Z"
             style="fill:#13366d;fill-opacity:1;fill-rule:nonzero;stroke:none"
             id="path32" /></g><g
           id="g34"
           transform="translate(384.2911,170.2883)"><path
             d="m 0,0 c 0.641,-3.398 2.146,-6.959 4.511,-10.69 2.369,-3.732 5.624,-6.959 9.772,-9.69 l -3.215,-3.843 C 3.554,-19.295 -1.597,-11.22 -4.383,0 h -0.668 c -1.864,-10.051 -7.475,-18.15 -16.83,-24.306 l -3.172,3.97 c 3.95,2.253 7.348,5.218 10.191,8.894 2.809,3.672 4.549,7.472 5.217,11.398 h -14.406 v 4.427 h 15.117 c 0.362,2.536 0.541,6.03 0.541,10.484 h 4.388 c 0,-4.789 -0.112,-8.283 -0.335,-10.484 h 17.705 v -4.427 z"
             style="fill:#13366d;fill-opacity:1;fill-rule:nonzero;stroke:none"
             id="path36" /></g><g
           id="g38"
           transform="translate(433.34,170.7688)"><path
             d="M 0,0 C -1.279,-0.89 -2.908,-1.668 -4.884,-2.337 L -6.68,0.461 c 1.919,0.414 3.37,0.918 4.344,1.502 -0.557,0.417 -1.49,1.085 -2.799,2.003 l 2.17,1.836 C -2.436,5.445 -1.947,5.135 -1.502,4.884 -0.973,4.523 -0.389,4.094 0.251,3.592 1.085,4.117 2.047,4.983 3.132,6.18 L 5.346,4.301 C 4.316,3.271 3.371,2.437 2.508,1.796 3.314,1.097 4.109,0.362 4.889,-0.417 L 2.214,-2.464 C 0.935,-0.822 0.195,0 0,0 M -0.25,8.561 C -1.642,7.67 -3.27,6.82 -5.135,6.013 l -2.13,2.798 c 2.337,0.64 3.871,1.212 4.595,1.712 -0.696,0.558 -1.645,1.208 -2.842,1.964 l 2.257,1.963 c 1.085,-0.699 2.187,-1.463 3.299,-2.297 1.197,0.806 2.047,1.558 2.548,2.254 l 2.086,-1.88 C 4.065,11.692 3.243,10.941 2.214,10.273 2.771,9.772 3.51,9.033 4.428,8.06 L 1.881,6.18 C 0.767,7.765 0.056,8.561 -0.25,8.561 M 14.212,-6.474 h -30.164 v -6.14 h -3.716 v 9.439 h 2.087 l -0.457,16.035 c 3.62,0.112 6.684,0.517 9.188,1.212 l 1.84,-3.088 c -1.561,-0.532 -4.038,-0.905 -7.435,-1.128 l 0.123,-2.13 h 6.517 V 4.884 h -6.39 l 0.039,-2.38 h 6.351 v -2.882 h -6.267 l 0.084,-2.797 h 26.153 l 0.044,2.797 h -5.85 v 2.882 h 5.973 l 0.084,2.38 H 6.359 v 2.842 h 6.14 l 0.044,2.297 H 5.897 v 3.299 H 16.219 L 15.758,-3.175 h 2.218 v -9.439 H 14.212 Z M 10.524,-8.27 v -3.048 c -2.448,-1.307 -5.468,-2.52 -9.061,-3.633 h 17.331 v -3.382 H 1.463 v -1.713 c 0,-2.976 -1.268,-4.467 -3.799,-4.467 h -6.141 l -0.958,3.382 5.72,-0.166 c 0.834,0 1.252,0.417 1.252,1.251 v 1.713 h -18.123 v 3.382 h 18.123 v 1.797 c 1.923,0.333 4.359,0.93 7.308,1.796 h -17.581 v 3.088 z"
             style="fill:#13366d;fill-opacity:1;fill-rule:nonzero;stroke:none"
             id="path40" /></g><g
           id="g42"
           transform="translate(157.7335,98.9324)"><path
             d="m 0,0 h -3.827 v 27.191 h -7.289 v 3.501 h 18.4 V 27.191 H 0 Z"
             style="fill:#13366d;fill-opacity:1;fill-rule:nonzero;stroke:none"
             id="path44" /></g><g
           id="g46"
           transform="translate(186.5494,117.2498)"><path
             d="M 0,0 V 12.375 H 3.827 V -18.317 H 0 v 14.735 h -14.613 v -14.735 h -3.823 v 30.692 h 3.823 V 0 Z"
             style="fill:#13366d;fill-opacity:1;fill-rule:nonzero;stroke:none"
             id="path48" /></g><g
           id="g50"
           transform="translate(196.3224,129.6248)"><path
             d="M 0,0 H 16.485 V -3.501 H 3.823 v -8.588 h 12.296 v -3.502 H 3.823 v -11.6 h 12.662 v -3.501 l -16.485,0 z"
             style="fill:#13366d;fill-opacity:1;fill-rule:nonzero;stroke:none"
             id="path52" /></g><g
           id="g54"
           transform="translate(248.2208,117.2498)"><path
             d="M 0,0 V 12.375 H 3.823 V -18.317 H 0 v 14.735 h -14.613 v -14.735 h -3.827 v 30.692 h 3.827 l 0,-12.375 z"
             style="fill:#13366d;fill-opacity:1;fill-rule:nonzero;stroke:none"
             id="path56" /></g><g
           id="g58"
           transform="translate(284.1627,114.2805)"><path
             d="m 0,0 c 0,6.756 -5.047,12.415 -12.252,12.415 -7.205,0 -12.252,-5.659 -12.252,-12.415 0,-7.002 5.615,-12.416 12.252,-12.416 C -5.619,-12.416 0,-7.002 0,0 m 3.827,0 c 0,-9.121 -7.204,-16 -16.079,-16 -8.874,0 -16.08,6.879 -16.08,16 0,8.791 7.286,15.996 16.08,15.996 C -3.461,15.996 3.827,8.791 3.827,0"
             style="fill:#13366d;fill-opacity:1;fill-rule:nonzero;stroke:none"
             id="path60" /></g><g
           id="g62"
           transform="translate(291.734,131.0906)"><path
             d="m 0,0 23.038,-24.139 v 22.673 h 3.828 V -33.422 L 3.827,-9.283 V -32.158 H 0 Z"
             style="fill:#13366d;fill-opacity:1;fill-rule:nonzero;stroke:none"
             id="path64" /></g><g
           id="g66"
           transform="translate(352.423,114.4002)"><path
             d="m 0,0 v -1.22 c 0,-8.426 -5.941,-14.9 -14.529,-14.9 -8.588,0 -15.512,7.408 -15.512,15.917 0,8.834 7.086,16.079 15.917,16.079 4.765,0 9.486,-2.158 12.498,-5.945 L -4.312,7.367 c -2.198,3.012 -5.906,5.008 -9.649,5.008 -6.879,0 -12.253,-5.576 -12.253,-12.455 0,-6.434 5.294,-12.538 11.927,-12.538 4.765,0 9.891,4.113 10.055,9.117 h -7.937 V 0 Z"
             style="fill:#13366d;fill-opacity:1;fill-rule:nonzero;stroke:none"
             id="path68" /></g><g
           id="g70"
           transform="translate(385.6388,129.6248)"><path
             d="M 0,0 H 5.008 L -8.791,-13.799 5.25,-30.692 H 0.083 l -11.561,14.286 -1.545,-1.466 v -12.82 H -16.85 V 0 h 3.827 v -13.31 z"
             style="fill:#13366d;fill-opacity:1;fill-rule:nonzero;stroke:none"
             id="path72" /></g><g
           id="g74"
           transform="translate(419.7931,114.2805)"><path
             d="m 0,0 c 0,6.756 -5.048,12.415 -12.253,12.415 -7.205,0 -12.252,-5.659 -12.252,-12.415 0,-7.002 5.615,-12.416 12.252,-12.416 C -5.62,-12.416 0,-7.002 0,0 m 3.822,0 c 0,-9.121 -7.205,-16 -16.075,-16 -8.874,0 -16.079,6.879 -16.079,16 0,8.791 7.284,15.996 16.079,15.996 C -3.462,15.996 3.822,8.791 3.822,0"
             style="fill:#13366d;fill-opacity:1;fill-rule:nonzero;stroke:none"
             id="path76" /></g><g
           id="g78"
           transform="translate(427.3634,131.0906)"><path
             d="m 0,0 23.038,-24.139 v 22.673 h 3.827 V -33.422 L 3.823,-9.283 V -32.158 H 0 Z"
             style="fill:#13366d;fill-opacity:1;fill-rule:nonzero;stroke:none"
             id="path80" /></g><g
           id="g82"
           transform="translate(488.0529,114.4002)"><path
             d="m 0,0 v -1.22 c 0,-8.426 -5.941,-14.9 -14.53,-14.9 -8.592,0 -15.511,7.408 -15.511,15.917 0,8.834 7.082,16.079 15.916,16.079 4.766,0 9.487,-2.158 12.499,-5.945 L -4.312,7.367 c -2.202,3.012 -5.906,5.008 -9.65,5.008 -6.879,0 -12.252,-5.576 -12.252,-12.455 0,-6.434 5.294,-12.538 11.927,-12.538 4.761,0 9.891,4.113 10.055,9.117 h -7.937 V 0 Z"
             style="fill:#13366d;fill-opacity:1;fill-rule:nonzero;stroke:none"
             id="path84" /></g><g
           id="g86"
           transform="translate(152.7662,80.7908)"><path
             d="m 0,0 v -18.114 c 0,-5.008 1.505,-9.646 7.407,-9.646 5.902,0 7.408,4.638 7.408,9.646 V 0 h 3.828 v -19.418 c 0,-6.757 -4.194,-11.927 -11.236,-11.927 -7.042,0 -11.235,5.17 -11.235,11.927 l 0,19.418 z"
             style="fill:#13366d;fill-opacity:1;fill-rule:nonzero;stroke:none"
             id="path88" /></g><g
           id="g90"
           transform="translate(176.7423,82.2566)"><path
             d="m 0,0 23.038,-24.139 v 22.673 h 3.826 V -33.422 L 3.827,-9.283 V -32.158 H 0 Z"
             style="fill:#13366d;fill-opacity:1;fill-rule:nonzero;stroke:none"
             id="path92" /></g><path
           d="m 213.172,50.098 h -3.827 V 80.79 h 3.827 z"
           style="fill:#13366d;fill-opacity:1;fill-rule:nonzero;stroke:none"
           id="path94" /><g
           id="g96"
           transform="translate(229.4547,58.0779)"><path
             d="M 0,0 9.117,22.713 H 13.31 L 0,-9.609 -13.353,22.713 h 4.192 z"
             style="fill:#13366d;fill-opacity:1;fill-rule:nonzero;stroke:none"
             id="path98" /></g><g
           id="g100"
           transform="translate(245.7765,80.7908)"><path
             d="M 0,0 H 16.485 V -3.502 H 3.827 V -12.09 H 16.12 v -3.501 H 3.827 v -11.6 h 12.658 v -3.501 H 0 Z"
             style="fill:#13366d;fill-opacity:1;fill-rule:nonzero;stroke:none"
             id="path102" /></g><g
           id="g104"
           transform="translate(271.2194,66.2566)"><path
             d="m 0,0 h 1.22 c 3.906,0 8.143,0.735 8.143,5.619 0,4.802 -4.563,5.496 -8.345,5.496 H 0 Z M 15.264,-16.158 H 10.622 L 1.585,-3.175 H 0 v -12.983 h -3.828 v 30.692 h 4.643 c 2.726,0 5.655,-0.04 8.099,-1.427 2.563,-1.503 4.029,-4.396 4.029,-7.324 0,-4.396 -2.933,-8.06 -7.368,-8.589 z"
             style="fill:#13366d;fill-opacity:1;fill-rule:nonzero;stroke:none"
             id="path106" /></g><g
           id="g108"
           transform="translate(303.5372,74.9676)"><path
             d="m 0,0 c -1.137,1.916 -2.604,2.894 -4.924,2.894 -2.444,0 -5.131,-1.669 -5.131,-4.356 0,-2.404 2.364,-3.664 4.276,-4.399 l 2.198,-0.855 c 4.355,-1.708 7.61,-4.108 7.61,-9.239 0,-5.576 -4.311,-9.566 -9.808,-9.566 -4.967,0 -8.834,3.664 -9.486,8.588 l 3.867,0.815 c -0.04,-3.379 2.647,-5.819 5.945,-5.819 3.299,0 5.66,2.767 5.66,5.982 0,3.299 -2.647,4.721 -5.294,5.821 l -2.119,0.895 c -3.497,1.506 -6.672,3.502 -6.672,7.777 0,4.964 4.395,7.937 9.037,7.937 3.418,0 6.228,-1.669 7.897,-4.642 z"
             style="fill:#13366d;fill-opacity:1;fill-rule:nonzero;stroke:none"
             id="path110" /></g><path
           d="m 315.872,50.098 h -3.826 V 80.79 h 3.826 z"
           style="fill:#13366d;fill-opacity:1;fill-rule:nonzero;stroke:none"
           id="path112" /><g
           id="g114"
           transform="translate(330.2833,50.0984)"><path
             d="m 0,0 h -3.827 v 27.19 h -7.289 v 3.502 h 18.4 V 27.19 H 0 Z"
             style="fill:#13366d;fill-opacity:1;fill-rule:nonzero;stroke:none"
             id="path116" /></g><g
           id="g118"
           transform="translate(337.8097,80.7908)"><path
             d="M 0,0 H 4.399 L 11.931,-13.107 19.457,0 h 4.4 L 13.842,-17.34 v -13.352 h -3.826 v 13.352 z"
             style="fill:#13366d;fill-opacity:1;fill-rule:nonzero;stroke:none"
             id="path120" /></g><g
           id="g122"
           transform="translate(403.0616,65.4461)"><path
             d="m 0,0 c 0,6.756 -5.047,12.415 -12.253,12.415 -7.204,0 -12.252,-5.659 -12.252,-12.415 0,-7.002 5.619,-12.415 12.252,-12.415 C -5.615,-12.415 0,-7.002 0,0 m 3.827,0 c 0,-9.12 -7.205,-16 -16.08,-16 -8.874,0 -16.079,6.88 -16.079,16 0,8.791 7.288,15.996 16.079,15.996 8.795,0 16.08,-7.205 16.08,-15.996"
             style="fill:#13366d;fill-opacity:1;fill-rule:nonzero;stroke:none"
             id="path124" /></g><g
           id="g126"
           transform="translate(414.7853,77.2888)"><path
             d="m 0,0 v -8.628 h 10.663 v -3.5 H 0 V -27.19 H -3.827 V 3.502 H 11.032 V 0 Z"
             style="fill:#13366d;fill-opacity:1;fill-rule:nonzero;stroke:none"
             id="path128" /></g><g
           id="g130"
           transform="translate(456.506,74.9676)"><path
             d="m 0,0 c -1.138,1.916 -2.604,2.894 -4.925,2.894 -2.439,0 -5.126,-1.669 -5.126,-4.356 0,-2.404 2.361,-3.664 4.272,-4.399 l 2.198,-0.855 c 4.355,-1.708 7.614,-4.108 7.614,-9.239 0,-5.576 -4.315,-9.566 -9.812,-9.566 -4.967,0 -8.834,3.664 -9.486,8.588 l 3.87,0.815 c -0.043,-3.379 2.644,-5.819 5.943,-5.819 3.298,0 5.658,2.767 5.658,5.982 0,3.299 -2.646,4.721 -5.293,5.821 l -2.115,0.895 c -3.5,1.506 -6.676,3.502 -6.676,7.777 0,4.964 4.396,7.937 9.037,7.937 3.418,0 6.228,-1.669 7.897,-4.642 z"
             style="fill:#13366d;fill-opacity:1;fill-rule:nonzero;stroke:none"
             id="path132" /></g><g
           id="g134"
           transform="translate(487.4845,74.9285)"><path
             d="m 0,0 c -2.198,1.955 -5.211,3.013 -8.1,3.013 -6.879,0 -12.132,-5.74 -12.132,-12.539 0,-6.716 5.209,-12.454 12.049,-12.454 3.012,0 5.902,1.139 8.183,3.174 v -4.518 c -2.361,-1.383 -5.373,-2.158 -8.06,-2.158 -8.752,0 -15.996,6.962 -15.996,15.836 0,9.078 7.285,16.16 16.323,16.16 2.685,0 5.412,-0.652 7.733,-2.078 z"
             style="fill:#13366d;fill-opacity:1;fill-rule:nonzero;stroke:none"
             id="path136" /></g><path
           d="m 496.156,50.098 h -3.827 V 80.79 h 3.827 z"
           style="fill:#13366d;fill-opacity:1;fill-rule:nonzero;stroke:none"
           id="path138" /><g
           id="g140"
           transform="translate(502.2999,80.7908)"><path
             d="M 0,0 H 16.485 V -3.502 H 3.827 v -8.588 h 12.292 v -3.501 H 3.827 v -11.6 h 12.658 v -3.501 H 0 Z"
             style="fill:#13366d;fill-opacity:1;fill-rule:nonzero;stroke:none"
             id="path142" /></g><g
           id="g144"
           transform="translate(523.5499,82.2566)"><path
             d="m 0,0 23.038,-24.139 v 22.673 h 3.827 V -33.422 L 3.826,-9.283 V -32.158 H 0 Z"
             style="fill:#13366d;fill-opacity:1;fill-rule:nonzero;stroke:none"
             id="path146" /></g><g
           id="g148"
           transform="translate(578.6232,74.9285)"><path
             d="m 0,0 c -2.197,1.955 -5.21,3.013 -8.099,3.013 -6.88,0 -12.133,-5.74 -12.133,-12.539 0,-6.716 5.21,-12.454 12.049,-12.454 3.013,0 5.902,1.139 8.183,3.174 v -4.518 c -2.36,-1.383 -5.373,-2.158 -8.06,-2.158 -8.751,0 -15.996,6.962 -15.996,15.836 0,9.078 7.285,16.16 16.323,16.16 2.686,0 5.412,-0.652 7.733,-2.078 z"
             style="fill:#13366d;fill-opacity:1;fill-rule:nonzero;stroke:none"
             id="path150" /></g><g
           id="g152"
           transform="translate(583.587,80.7908)"><path
             d="M 0,0 H 16.488 V -3.502 H 3.827 v -8.588 h 12.296 v -3.501 H 3.827 v -11.6 h 12.661 v -3.501 H 0 Z"
             style="fill:#13366d;fill-opacity:1;fill-rule:nonzero;stroke:none"
             id="path154" /></g><g
           id="g156"
           transform="translate(160.8654,24.8738)"><path
             d="m 0,0 -5.453,-12.414 h 10.91 z m -7.043,-15.916 -3.497,-7.693 h -4.113 L 0,8.386 14.656,-23.609 h -4.113 l -3.501,7.693 z"
             style="fill:#13366d;fill-opacity:1;fill-rule:nonzero;stroke:none"
             id="path158" /></g><g
           id="g160"
           transform="translate(178.1251,33.4226)"><path
             d="m 0,0 23.038,-24.14 v 22.674 h 3.827 V -33.423 L 3.827,-9.284 V -32.158 H 0 Z"
             style="fill:#13366d;fill-opacity:1;fill-rule:nonzero;stroke:none"
             id="path162" /></g><g
           id="g164"
           transform="translate(214.3527,4.7644)"><path
             d="m 0,0 h 1.344 c 7.817,0 14.573,2.93 14.573,11.848 0,8.953 -6.756,11.842 -14.573,11.842 H 0 Z m -3.827,27.192 h 6.351 c 9.403,0 17.22,-4.968 17.22,-15.186 C 19.744,1.547 12.09,-3.5 2.401,-3.5 h -6.228 z"
             style="fill:#13366d;fill-opacity:1;fill-rule:nonzero;stroke:none"
             id="path166" /></g><g
           id="g168"
           transform="translate(258.7604,1.2644)"><path
             d="m 0,0 h -3.823 v 27.19 h -7.289 v 3.502 h 18.4 V 27.19 H 0 Z"
             style="fill:#13366d;fill-opacity:1;fill-rule:nonzero;stroke:none"
             id="path170" /></g><g
           id="g172"
           transform="translate(269.4664,31.9568)"><path
             d="M 0,0 H 16.485 V -3.502 H 3.827 v -8.588 h 12.292 v -3.502 H 3.827 v -11.6 h 12.658 v -3.5 H 0 Z"
             style="fill:#13366d;fill-opacity:1;fill-rule:nonzero;stroke:none"
             id="path174" /></g><g
           id="g176"
           transform="translate(313.4288,26.0935)"><path
             d="m 0,0 c -2.198,1.956 -5.21,3.014 -8.1,3.014 -6.879,0 -12.129,-5.74 -12.129,-12.539 0,-6.717 5.21,-12.455 12.045,-12.455 3.013,0 5.907,1.14 8.184,3.175 v -4.519 c -2.36,-1.383 -5.374,-2.157 -8.06,-2.157 -8.751,0 -15.996,6.962 -15.996,15.836 0,9.078 7.285,16.159 16.322,16.159 2.687,0 5.413,-0.651 7.734,-2.077 z"
             style="fill:#13366d;fill-opacity:1;fill-rule:nonzero;stroke:none"
             id="path178" /></g><g
           id="g180"
           transform="translate(336.5099,19.5808)"><path
             d="M 0,0 V 12.376 H 3.824 V -18.316 H 0 v 14.735 h -14.612 v -14.735 h -3.827 v 30.692 h 3.827 V 0 Z"
             style="fill:#13366d;fill-opacity:1;fill-rule:nonzero;stroke:none"
             id="path182" /></g><g
           id="g184"
           transform="translate(345.9132,33.4226)"><path
             d="m 0,0 23.038,-24.14 v 22.674 h 3.827 V -33.423 L 3.823,-9.284 V -32.158 H 0 Z"
             style="fill:#13366d;fill-opacity:1;fill-rule:nonzero;stroke:none"
             id="path186" /></g><g
           id="g188"
           transform="translate(404.8136,16.6121)"><path
             d="m 0,0 c 0,6.756 -5.051,12.415 -12.256,12.415 -7.201,0 -12.252,-5.659 -12.252,-12.415 0,-7.002 5.619,-12.416 12.252,-12.416 C -5.619,-12.416 0,-7.002 0,0 m 3.824,0 c 0,-9.121 -7.206,-16 -16.08,-16 -8.87,0 -16.075,6.879 -16.075,16 0,8.791 7.284,15.995 16.075,15.995 8.795,0 16.08,-7.204 16.08,-15.995"
             style="fill:#13366d;fill-opacity:1;fill-rule:nonzero;stroke:none"
             id="path190" /></g><g
           id="g192"
           transform="translate(416.5773,4.7644)"><path
             d="M 0,0 H 9.32 V -3.5 H -3.827 V 27.192 H 0 Z"
             style="fill:#13366d;fill-opacity:1;fill-rule:nonzero;stroke:none"
             id="path194" /></g><g
           id="g196"
           transform="translate(454.9991,16.6121)"><path
             d="m 0,0 c 0,6.756 -5.047,12.415 -12.252,12.415 -7.205,0 -12.252,-5.659 -12.252,-12.415 0,-7.002 5.619,-12.416 12.252,-12.416 C -5.615,-12.416 0,-7.002 0,0 m 3.828,0 c 0,-9.121 -7.206,-16 -16.08,-16 -8.87,0 -16.075,6.879 -16.075,16 0,8.791 7.284,15.995 16.075,15.995 8.795,0 16.08,-7.204 16.08,-15.995"
             style="fill:#13366d;fill-opacity:1;fill-rule:nonzero;stroke:none"
             id="path198" /></g><g
           id="g200"
           transform="translate(490.9025,16.7312)"><path
             d="m 0,0 v -1.22 c 0,-8.426 -5.941,-14.899 -14.53,-14.899 -8.588,0 -15.511,7.407 -15.511,15.917 0,8.834 7.086,16.078 15.916,16.078 4.766,0 9.486,-2.157 12.499,-5.944 L -4.312,7.368 c -2.198,3.012 -5.906,5.008 -9.65,5.008 -6.879,0 -12.252,-5.576 -12.252,-12.455 0,-6.435 5.294,-12.539 11.926,-12.539 4.766,0 9.892,4.113 10.056,9.117 h -7.937 V 0 Z"
             style="fill:#13366d;fill-opacity:1;fill-rule:nonzero;stroke:none"
             id="path202" /></g><g
           id="g204"
           transform="translate(491.9191,31.9568)"><path
             d="M 0,0 H 4.399 L 11.927,-13.107 19.458,0 h 4.398 L 13.843,-17.34 v -13.352 h -3.828 v 13.352 z"
             style="fill:#13366d;fill-opacity:1;fill-rule:nonzero;stroke:none"
             id="path206" /></g><g
           id="g208"
           transform="translate(94.379,0.2673)"><path
             d="m 0,0 -22.02,36.688 c 0,0 -0.688,0.839 -0.688,2.226 l 10e-4,0.816 v 1.876 65.335 h -8.312 V 38.827 36.742 c 0.693,-0.694 14.545,-24.327 14.545,-24.327 h -34.362 c 0,0 13.853,23.633 14.545,24.327 v 2.085 68.114 h -8.312 V 41.606 39.73 l 0.001,-0.816 c 0,-1.387 -0.688,-2.226 -0.688,-2.226 L -67.31,0 Z"
             style="fill:#9e7d26;fill-opacity:1;fill-rule:nonzero;stroke:none"
             id="path210" /></g><g
           id="g212"
           transform="translate(87.5568,154.8176)"><path
             d="m 0,0 c 0,0 4.14,17.152 -10.646,28.389 0,0 -5.915,5.323 -17.152,5.323 -10.055,0 -15.969,-5.323 -15.969,-5.323 C -57.37,18.926 -53.822,0 -53.822,0 Z"
             style="fill:#9e7d26;fill-opacity:1;fill-rule:nonzero;stroke:none"
             id="path214" /></g><g
           id="g216"
           transform="translate(35.401,150.0857)"><path
             d="m 0,0 h 50.593 c 0.392,0.96 0.734,1.947 1.02,2.958 H -1.021 C -0.734,1.947 -0.393,0.96 0,0"
             style="fill:#9e7d26;fill-opacity:1;fill-rule:nonzero;stroke:none"
             id="path218" /></g><g
           id="g220"
           transform="translate(85.1949,148.3118)"><path
             d="m 0,0 h -48.995 c 0.505,-1.023 1.069,-2.011 1.69,-2.958 H -1.69 C -1.069,-2.011 -0.505,-1.023 0,0"
             style="fill:#9e7d26;fill-opacity:1;fill-rule:nonzero;stroke:none"
             id="path222" /></g><g
           id="g224"
           transform="translate(41.2081,141.2141)"><path
             d="m 0,0 h 38.979 c 0.727,0.749 1.414,1.538 2.055,2.366 H -2.055 C -1.415,1.538 -0.728,0.749 0,0"
             style="fill:#9e7d26;fill-opacity:1;fill-rule:nonzero;stroke:none"
             id="path226" /></g><g
           id="g228"
           transform="translate(45.4196,137.6658)"><path
             d="m 0,0 h 30.556 c 0.804,0.55 1.577,1.143 2.317,1.774 H -2.317 C -1.577,1.143 -0.804,0.55 0,0"
             style="fill:#9e7d26;fill-opacity:1;fill-rule:nonzero;stroke:none"
             id="path230" /></g><g
           id="g232"
           transform="translate(49.6422,135.2996)"><path
             d="m 0,0 c 3.381,-1.517 7.121,-2.361 11.055,-2.361 3.935,0 7.674,0.844 11.055,2.361 z"
             style="fill:#9e7d26;fill-opacity:1;fill-rule:nonzero;stroke:none"
             id="path234" /></g><g
           id="g236"
           transform="translate(113.1735,131.6165)"><path
             d="m 0,0 h -41.406 c 0,0 -3.837,0 -6.901,-2.091 -2.37,-1.618 -4.054,-5.383 -4.136,-5.568 h -0.008 c -0.081,0.185 -1.766,3.95 -4.136,5.568 C -59.65,0 -63.487,0 -63.487,0 h -41.407 l -8.279,-13.246 h 37.923 c 0,0 1.123,0 1.811,-0.116 1.115,-0.188 3.081,-0.782 5.121,-2.256 2.806,-2.029 3.596,-3.059 4.285,-3.756 0.345,-0.348 1.236,-1.54 1.236,-1.54 h 9.296 1.054 3.208 7.142 c 0,0 0.891,1.192 1.236,1.54 0.689,0.697 1.479,1.727 4.286,3.756 2.039,1.474 4.005,2.068 5.121,2.256 0.687,0.116 1.81,0.116 1.81,0.116 H 8.28 Z"
             style="fill:#13366d;fill-opacity:1;fill-rule:nonzero;stroke:none"
             id="path238" /></g><g
           id="g240"
           transform="translate(4.1549,114.345)"><path
             d="m 0,0 v -62.114 -0.85 c 0,-0.688 0.05,-1.3 0.107,-1.859 0.683,-6.657 2.756,-11.567 6.625,-18.036 6.086,-10.147 17.11,-17.233 17.11,-17.233 l 5.201,8.285 c 0,0 -7.062,3.763 -12.694,12.38 -1.142,1.726 -2.266,3.333 -3.036,4.937 -0.725,1.508 -1.28,2.759 -1.721,4.068 -0.318,0.944 -0.58,1.81 -0.775,2.612 -0.281,1.157 -0.409,2.035 -0.478,3.122 -0.024,0.381 -0.068,1.948 -0.068,1.948 v 0.293 l 0,62.447 z"
             style="fill:#13366d;fill-opacity:1;fill-rule:nonzero;stroke:none"
             id="path242" /></g><g
           id="g244"
           transform="translate(19.9347,114.345)"><path
             d="m 0,0 v -62.74 c 0,0 0.012,-0.252 0.032,-0.523 0.024,-0.318 0.055,-0.764 0.104,-1.118 0.03,-0.216 0.076,-0.502 0.109,-0.661 0.201,-0.973 0.412,-1.856 0.844,-3.138 0.715,-2.118 1.96,-4.663 3.773,-7.593 4.647,-7.517 11.371,-10.948 11.371,-10.948 l 5.189,8.08 c 0,0 -1.718,0.946 -3.81,2.962 -1.383,1.332 -3.033,3.073 -4.444,5.181 -1.375,2.132 -2.22,4.281 -2.71,5.92 -0.404,1.347 -0.476,2.442 -0.494,3.152 -0.015,0.572 -0.009,0.893 -0.009,0.893 L 9.955,0 Z"
             style="fill:#13366d;fill-opacity:1;fill-rule:nonzero;stroke:none"
             id="path246" /></g><g
           id="g248"
           transform="translate(117.2985,114.345)"><path
             d="m 0,0 v -62.114 -0.85 c 0,-0.688 -0.05,-1.3 -0.107,-1.859 -0.683,-6.657 -2.756,-11.567 -6.625,-18.036 -6.086,-10.147 -17.11,-17.233 -17.11,-17.233 l -5.201,8.285 c 0,0 7.062,3.763 12.694,12.38 1.142,1.726 2.266,3.333 3.036,4.937 0.725,1.508 1.28,2.759 1.721,4.068 0.318,0.944 0.58,1.81 0.775,2.612 0.281,1.157 0.409,2.035 0.478,3.122 0.024,0.381 0.068,1.948 0.068,1.948 V -62.447 0 Z"
             style="fill:#13366d;fill-opacity:1;fill-rule:nonzero;stroke:none"
             id="path250" /></g><g
           id="g252"
           transform="translate(101.5187,114.345)"><path
             d="m 0,0 v -62.74 c 0,0 -0.012,-0.252 -0.032,-0.523 -0.024,-0.318 -0.055,-0.764 -0.104,-1.118 -0.03,-0.216 -0.076,-0.502 -0.109,-0.661 -0.201,-0.973 -0.412,-1.856 -0.844,-3.138 -0.715,-2.118 -1.96,-4.663 -3.773,-7.593 -4.647,-7.517 -11.371,-10.948 -11.371,-10.948 l -5.189,8.08 c 0,0 1.718,0.946 3.81,2.962 1.383,1.332 3.033,3.073 4.444,5.181 1.375,2.132 2.22,4.281 2.71,5.92 0.404,1.347 0.476,2.442 0.494,3.152 0.015,0.572 0.009,0.893 0.009,0.893 l 0,60.533 z"
             style="fill:#13366d;fill-opacity:1;fill-rule:nonzero;stroke:none"
             id="path254" /></g></g></g></g></svg>
